<?xml version="1.0" standalone="no"?>
<!DOCTYPE svg PUBLIC "-//W3C//DTD SVG 20010904//EN"
 "http://www.w3.org/TR/2001/REC-SVG-20010904/DTD/svg10.dtd">
<svg version="1.0" xmlns="http://www.w3.org/2000/svg"
 width="120.000000pt" height="120.000000pt" viewBox="0 0 120.000000 120.000000"
 preserveAspectRatio="xMidYMid meet">
<metadata>
Created by potrace 1.14, written by Peter Selinger 2001-2017
</metadata>
<g transform="translate(0.000000,120.000000) scale(0.100000,-0.100000)"
fill="#000000" stroke="none">
<path d="M537 1010 c-125 -21 -242 -117 -285 -233 -25 -65 -39 -167 -23 -167
5 0 8 6 5 14 -8 21 15 123 39 176 28 59 110 140 171 169 221 103 478 -30 525
-271 7 -35 9 -38 10 -13 2 49 -42 147 -91 205 -22 25 -91 75 -128 92 -33 15
-141 39 -164 37 -6 -1 -33 -5 -59 -9z"/>
<path d="M588 920 c4 -28 23 -39 24 -15 0 6 4 18 9 28 8 14 5 17 -14 17 -21 0
-23 -4 -19 -30z"/>
<path d="M480 913 c0 -28 16 -47 34 -40 13 5 14 11 4 32 -13 29 -38 34 -38 8z"/>
<path d="M687 912 c-22 -24 -21 -32 3 -32 11 0 20 -4 20 -10 0 -5 4 -10 9 -10
13 0 8 63 -5 67 -6 2 -18 -5 -27 -15z"/>
<path d="M384 856 c-7 -31 1 -46 26 -46 25 0 41 30 29 53 -15 26 -48 21 -55
-7z"/>
<path d="M769 864 c-16 -20 -1 -48 29 -52 25 -4 39 32 22 53 -16 19 -34 19
-51 -1z"/>
<path d="M331 787 c-15 -15 -14 -54 2 -60 21 -8 47 13 47 37 0 26 -31 41 -49
23z"/>
<path d="M833 781 c-14 -23 2 -51 28 -51 23 0 36 27 23 48 -14 21 -39 23 -51
3z"/>
<path d="M880 680 c0 -5 5 -10 10 -10 6 0 10 -4 10 -10 0 -17 -28 -11 -33 8
-4 13 -5 12 -6 -4 -1 -27 21 -37 45 -19 15 11 16 15 5 29 -15 18 -31 21 -31 6z"/>
<path d="M295 670 c-4 -6 -4 -14 0 -18 3 -3 10 0 14 7 5 7 14 10 20 7 6 -4 9
-12 6 -17 -4 -5 -1 -9 5 -9 6 0 10 8 8 18 -4 20 -43 29 -53 12z"/>
<path d="M970 628 c0 -19 2 -20 10 -8 13 19 13 30 0 30 -5 0 -10 -10 -10 -22z"/>
<path d="M235 557 c7 -72 70 -178 131 -218 13 -8 21 -19 17 -22 -3 -4 1 -7 10
-7 8 0 24 -3 34 -6 10 -3 2 4 -17 16 -79 48 -150 149 -170 241 l-9 44 4 -48z"/>
<path d="M961 547 c-18 -82 -125 -227 -168 -227 -6 0 -14 -4 -17 -9 -3 -5 2
-8 12 -7 29 2 118 94 150 154 26 50 52 142 39 142 -2 0 -9 -24 -16 -53z"/>
<path d="M310 575 c-17 -20 -5 -45 20 -45 11 0 23 7 26 15 6 15 -11 45 -26 45
-4 0 -13 -7 -20 -15z m33 -26 c-17 -17 -37 -1 -22 17 8 10 15 12 23 4 7 -7 7
-13 -1 -21z"/>
<path d="M872 574 c14 -14 21 -15 30 -6 8 8 9 12 1 12 -6 0 -20 3 -30 6 -17 7
-17 6 -1 -12z"/>
<path d="M850 550 c-8 -5 -10 -10 -5 -10 6 0 21 -3 35 -7 23 -6 24 -6 8 10
-19 20 -19 20 -38 7z"/>
<path d="M359 479 c-17 -15 -19 -19 -6 -15 12 4 17 0 17 -14 0 -18 3 -19 20
-8 22 14 27 29 8 26 -7 -2 -12 5 -10 15 4 22 -1 22 -29 -4z"/>
<path d="M824 461 c21 -23 26 -26 26 -11 0 5 -10 15 -22 21 -23 12 -23 12 -4
-10z"/>
<path d="M450 399 c0 -13 -4 -18 -12 -13 -10 5 -10 4 -1 -6 15 -16 34 -4 26
17 -5 12 -3 14 7 8 9 -5 11 -4 6 3 -11 19 -26 14 -26 -9z"/>
<path d="M730 412 c0 -5 9 -17 20 -27 11 -10 20 -13 20 -7 0 6 -5 14 -10 17
-6 4 -8 11 -5 16 4 5 -1 9 -9 9 -9 0 -16 -4 -16 -8z"/>
<path d="M530 355 c0 -18 5 -25 20 -25 11 0 20 4 20 9 0 5 3 18 6 28 5 17 5
17 -9 1 -17 -22 -31 -23 -23 -3 3 8 1 15 -4 15 -6 0 -10 -11 -10 -25z"/>
<path d="M643 366 c4 -10 7 -22 7 -27 0 -5 8 -9 18 -8 10 0 12 3 5 6 -7 2 -13
11 -13 18 0 8 -5 17 -12 21 -8 5 -9 2 -5 -10z"/>
<path d="M37 227 c6 -30 39 -30 52 1 9 18 8 22 -1 15 -19 -11 -38 -12 -38 -2
0 5 -4 9 -9 9 -4 0 -6 -10 -4 -23z"/>
<path d="M140 231 c0 -11 -5 -21 -11 -21 -5 0 -7 5 -4 10 3 6 -1 10 -9 10 -9
0 -16 -7 -16 -15 0 -10 11 -15 35 -15 38 0 47 18 20 40 -13 10 -15 9 -15 -9z"/>
<path d="M205 239 c-4 -6 -2 -15 5 -19 10 -6 9 -9 -1 -14 -8 -3 -5 -5 6 -3 12
1 20 10 20 21 0 22 -20 32 -30 15z"/>
<path d="M430 230 c0 -14 -6 -20 -22 -19 -17 1 -19 2 -5 6 29 8 19 20 -13 15
-19 -3 -30 -10 -30 -21 0 -14 2 -14 10 -1 6 10 10 11 10 3 0 -8 13 -13 29 -13
23 0 30 5 33 25 3 14 1 25 -3 25 -5 0 -9 -9 -9 -20z"/>
<path d="M570 241 c0 -5 -3 -16 -6 -25 -4 -11 0 -16 14 -16 25 0 33 20 16 37
-15 15 -24 17 -24 4z"/>
<path d="M649 248 c-5 -17 -4 -48 3 -48 4 0 8 11 8 25 0 20 -7 34 -11 23z"/>
<path d="M677 232 c1 -8 3 -18 3 -23 0 -15 27 -10 34 6 3 10 -1 15 -13 15 -11
0 -21 3 -24 8 -2 4 -2 1 0 -6z"/>
<path d="M730 241 c0 -5 -3 -16 -6 -25 -3 -9 -2 -16 3 -16 5 0 10 11 11 25 1
14 0 25 -3 25 -3 0 -5 -4 -5 -9z"/>
<path d="M888 225 c-6 -29 -2 -31 18 -10 9 8 12 19 9 25 -11 17 -22 11 -27
-15z"/>
<path d="M1083 235 c-17 -19 -16 -35 1 -35 7 0 16 11 18 25 6 28 -1 31 -19 10z"/>
<path d="M246 217 c-8 -31 -7 -37 5 -37 5 0 8 4 5 9 -7 11 22 23 36 15 6 -4
14 0 19 7 6 10 9 11 9 2 0 -7 8 -13 18 -13 13 0 14 2 3 9 -11 7 -11 9 0 14 8
3 -4 5 -26 5 -23 -1 -46 1 -52 5 -6 4 -13 -3 -17 -16z"/>
<path d="M510 220 c0 -11 4 -20 8 -20 4 0 8 9 9 20 1 11 -2 20 -8 20 -5 0 -9
-9 -9 -20z"/>
<path d="M756 233 c-9 -9 -7 -33 3 -33 12 0 22 28 12 34 -5 3 -11 3 -15 -1z"/>
<path d="M830 218 c0 -19 2 -20 10 -8 13 19 13 30 0 30 -5 0 -10 -10 -10 -22z"/>
<path d="M930 216 c0 -18 2 -19 11 -6 8 11 12 12 16 3 6 -17 33 -16 33 1 0 8
-13 16 -30 18 -25 4 -30 1 -30 -16z"/>
<path d="M1150 218 c0 -12 3 -17 8 -12 4 5 11 12 15 15 5 3 2 9 -7 12 -12 5
-16 0 -16 -15z"/>
<path d="M450 214 c0 -8 5 -12 10 -9 6 3 10 10 10 16 0 5 -4 9 -10 9 -5 0 -10
-7 -10 -16z"/>
<path d="M476 215 c-3 -9 0 -15 9 -15 8 0 15 7 15 15 0 8 -4 15 -9 15 -5 0
-11 -7 -15 -15z"/>
<path d="M786 215 c-4 -10 1 -15 14 -15 11 0 20 7 20 15 0 8 -6 15 -14 15 -8
0 -16 -7 -20 -15z"/>
<path d="M1000 221 c0 -15 23 -26 28 -13 2 7 8 12 13 12 6 0 7 -4 4 -10 -3 -5
-1 -10 4 -10 6 0 11 7 11 15 0 10 -10 15 -30 15 -16 0 -30 -4 -30 -9z"/>
<path d="M1110 215 c0 -8 6 -15 13 -15 8 0 14 7 14 15 0 8 -6 15 -14 15 -7 0
-13 -7 -13 -15z"/>
</g>
</svg>
