<?xml version="1.0" encoding="utf-8"?>
<svg width="732" height="398" viewBox="0 0 732 398" xmlns="http://www.w3.org/2000/svg">
<rect id="frame" x="0" y="0" width="732" height="398" fill="#f7f7f7" stroke="none" stroke-width="0"/>

<!-- Association WRITE -->
<g class="page_0_00hwnTcU diagram_page" visibility="visible">
	<line x1="53" y1="68" x2="189" y2="68" stroke="#e08214" stroke-width="2"/>
	<text x="102" y="85" fill="#542788" font-family="Verdana" font-size="12">0,N</text>
	<line x1="339" y1="203" x2="189" y2="68" stroke="#e08214" stroke-width="2"/>
	<text x="255" y="161.25" fill="#542788" font-family="Verdana" font-size="12">1,1</text>
	<g>
		<path d="M203 43 a14 14 90 0 1 14 14 V68 h-56 V57 a14 14 90 0 1 14 -14" fill="#fdb863" stroke="#fdb863" stroke-width="0"/>
		<path d="M217 68 v11 a14 14 90 0 1 -14 14 H175 a14 14 90 0 1 -14 -14 V68 H56" fill="#fee0b6" stroke="#fee0b6" stroke-width="0"/>
		<rect x="161" y="43" width="56" height="50" fill="none" rx="14" stroke="#e08214" stroke-width="2"/>
		<line x1="161" y1="68" x2="217" y2="68" stroke="#e08214" stroke-width="1"/>
		<text x="169" y="60.75" fill="#000" font-family="Verdana" font-size="12">WRITE</text>
	</g>
</g>

<!-- Association DESCRIBE -->
<g class="page_0_00hwnTcU diagram_page" visibility="visible">
	<line x1="663" y1="68" x2="500" y2="68" stroke="#e08214" stroke-width="2"/>
	<text x="584" y="85" fill="#542788" font-family="Verdana" font-size="12">0,N</text>
	<line x1="339" y1="203" x2="500" y2="68" stroke="#e08214" stroke-width="2"/>
	<text x="402" y="165.17" fill="#542788" font-family="Verdana" font-size="12">1,1</text>
	<g>
		<path d="M525 43 a14 14 90 0 1 14 14 V68 h-78 V57 a14 14 90 0 1 14 -14" fill="#fdb863" stroke="#fdb863" stroke-width="0"/>
		<path d="M539 68 v11 a14 14 90 0 1 -14 14 H475 a14 14 90 0 1 -14 -14 V68 H78" fill="#fee0b6" stroke="#fee0b6" stroke-width="0"/>
		<rect x="461" y="43" width="78" height="50" fill="none" rx="14" stroke="#e08214" stroke-width="2"/>
		<line x1="461" y1="68" x2="539" y2="68" stroke="#e08214" stroke-width="1"/>
		<text x="468" y="60.75" fill="#000" font-family="Verdana" font-size="12">DESCRIBE</text>
	</g>
</g>

<!-- Association BELONG -->
<g class="page_0_00hwnTcU diagram_page" visibility="visible">
	<line x1="53" y1="338" x2="53" y2="203" stroke="#e08214" stroke-width="2"/>
	<text x="58" y="296" fill="#542788" font-family="Verdana" font-size="12">0,N</text>
	<line x1="53" y1="68" x2="53" y2="203" stroke="#e08214" stroke-width="2"/>
	<text x="58" y="144" fill="#542788" font-family="Verdana" font-size="12">1,1</text>
	<g>
		<path d="M72 178 a14 14 90 0 1 14 14 V203 h-66 V192 a14 14 90 0 1 14 -14" fill="#fdb863" stroke="#fdb863" stroke-width="0"/>
		<path d="M86 203 v11 a14 14 90 0 1 -14 14 H34 a14 14 90 0 1 -14 -14 V203 H66" fill="#fee0b6" stroke="#fee0b6" stroke-width="0"/>
		<rect x="20" y="178" width="66" height="50" fill="none" rx="14" stroke="#e08214" stroke-width="2"/>
		<line x1="20" y1="203" x2="86" y2="203" stroke="#e08214" stroke-width="1"/>
		<text x="28" y="195.75" fill="#000" font-family="Verdana" font-size="12">BELONG</text>
	</g>
</g>

<!-- Association REQUIRE -->
<g class="page_0_00hwnTcU diagram_page" visibility="visible">
	<line x1="339" y1="203" x2="500" y2="203" stroke="#e08214" stroke-width="2"/>
	<text x="402" y="220" fill="#542788" font-family="Verdana" font-size="12">0,N</text>
	<line x1="663" y1="203" x2="500" y2="203" stroke="#e08214" stroke-width="2"/>
	<text x="593" y="220" fill="#542788" font-family="Verdana" font-size="12">0,N</text>
	<g>
		<path d="M521 178 a14 14 90 0 1 14 14 V203 h-70 V192 a14 14 90 0 1 14 -14" fill="#fdb863" stroke="#fdb863" stroke-width="0"/>
		<path d="M535 203 v11 a14 14 90 0 1 -14 14 H479 a14 14 90 0 1 -14 -14 V203 H70" fill="#fee0b6" stroke="#fee0b6" stroke-width="0"/>
		<rect x="465" y="178" width="70" height="50" fill="none" rx="14" stroke="#e08214" stroke-width="2"/>
		<line x1="465" y1="203" x2="535" y2="203" stroke="#e08214" stroke-width="1"/>
		<text x="472" y="195.75" fill="#000" font-family="Verdana" font-size="12">REQUIRE</text>
	</g>
</g>

<!-- Entity USER -->
<g class="page_0_00hwnTcU diagram_page" visibility="visible">
	<g>
		<rect x="9" y="9" width="88" height="25" fill="#b2abd2" stroke="#b2abd2" stroke-width="0" opacity="1"/>
		<rect x="9" y="34" width="88" height="93" fill="#d8daeb" stroke="#d8daeb" stroke-width="0" opacity="1"/>
		<rect x="9" y="9" width="88" height="118" fill="none" stroke="#8073ac" stroke-width="2" opacity="1"/>
		<line x1="9" y1="34" x2="97" y2="34" stroke="#8073ac" stroke-width="1"/>
	</g>
	<text x="36" y="26.75" fill="#000" font-family="Verdana" font-size="12">USER</text>
	<text x="14" y="51.8" fill="#000" font-family="Verdana" font-size="12">user number</text>
	<line x1="14" y1="54" x2="92" y2="54" stroke="#000" stroke-width="1"/>
	<text x="14" y="68.8" fill="#000" font-family="Verdana" font-size="12">email</text>
	<text x="14" y="85.8" fill="#000" font-family="Verdana" font-size="12">name</text>
	<text x="14" y="102.8" fill="#000" font-family="Verdana" font-size="12">password</text>
	<text x="14" y="119.8" fill="#000" font-family="Verdana" font-size="12">role</text>
</g>

<!-- Entity SERVICE -->
<g class="page_0_00hwnTcU diagram_page" visibility="visible">
	<g>
		<rect x="611" y="17" width="104" height="25" fill="#b2abd2" stroke="#b2abd2" stroke-width="0" opacity="1"/>
		<rect x="611" y="42" width="104" height="77" fill="#d8daeb" stroke="#d8daeb" stroke-width="0" opacity="1"/>
		<rect x="611" y="17" width="104" height="102" fill="none" stroke="#8073ac" stroke-width="2" opacity="1"/>
		<line x1="611" y1="42" x2="715" y2="42" stroke="#8073ac" stroke-width="1"/>
	</g>
	<text x="636" y="34.75" fill="#000" font-family="Verdana" font-size="12">SERVICE</text>
	<text x="616" y="59.8" fill="#000" font-family="Verdana" font-size="12">service number</text>
	<line x1="616" y1="62" x2="710" y2="62" stroke="#000" stroke-width="1"/>
	<text x="616" y="76.8" fill="#000" font-family="Verdana" font-size="12">title</text>
	<text x="616" y="93.8" fill="#000" font-family="Verdana" font-size="12">description</text>
	<text x="616" y="110.8" fill="#000" font-family="Verdana" font-size="12">is active</text>
</g>

<!-- Entity JOB OFFER -->
<g class="page_0_00hwnTcU diagram_page" visibility="visible">
	<g>
		<rect x="281" y="101" width="116" height="25" fill="#b2abd2" stroke="#b2abd2" stroke-width="0" opacity="1"/>
		<rect x="281" y="126" width="116" height="179" fill="#d8daeb" stroke="#d8daeb" stroke-width="0" opacity="1"/>
		<rect x="281" y="101" width="116" height="204" fill="none" stroke="#8073ac" stroke-width="2" opacity="1"/>
		<line x1="281" y1="126" x2="397" y2="126" stroke="#8073ac" stroke-width="1"/>
	</g>
	<text x="305" y="118.75" fill="#000" font-family="Verdana" font-size="12">JOB OFFER</text>
	<text x="286" y="143.8" fill="#000" font-family="Verdana" font-size="12">offer number</text>
	<line x1="286" y1="146" x2="366" y2="146" stroke="#000" stroke-width="1"/>
	<text x="286" y="160.8" fill="#000" font-family="Verdana" font-size="12">title</text>
	<text x="286" y="177.8" fill="#000" font-family="Verdana" font-size="12">place</text>
	<text x="286" y="194.8" fill="#000" font-family="Verdana" font-size="12">sector</text>
	<text x="286" y="211.8" fill="#000" font-family="Verdana" font-size="12">content</text>
	<text x="286" y="228.8" fill="#000" font-family="Verdana" font-size="12">linkedIn link</text>
	<text x="286" y="245.8" fill="#000" font-family="Verdana" font-size="12">job start date</text>
	<text x="286" y="262.8" fill="#000" font-family="Verdana" font-size="12">offer create date</text>
	<text x="286" y="279.8" fill="#000" font-family="Verdana" font-size="12">offer update date</text>
	<text x="286" y="296.8" fill="#000" font-family="Verdana" font-size="12">is active</text>
</g>

<!-- Entity SKILL -->
<g class="page_0_00hwnTcU diagram_page" visibility="visible">
	<g>
		<rect x="620" y="144" width="86" height="25" fill="#b2abd2" stroke="#b2abd2" stroke-width="0" opacity="1"/>
		<rect x="620" y="169" width="86" height="93" fill="#d8daeb" stroke="#d8daeb" stroke-width="0" opacity="1"/>
		<rect x="620" y="144" width="86" height="118" fill="none" stroke="#8073ac" stroke-width="2" opacity="1"/>
		<line x1="620" y1="169" x2="706" y2="169" stroke="#8073ac" stroke-width="1"/>
	</g>
	<text x="645" y="161.75" fill="#000" font-family="Verdana" font-size="12">SKILL</text>
	<text x="625" y="186.8" fill="#000" font-family="Verdana" font-size="12">skill number</text>
	<line x1="625" y1="189" x2="700" y2="189" stroke="#000" stroke-width="1"/>
	<text x="625" y="203.8" fill="#000" font-family="Verdana" font-size="12">title</text>
	<text x="625" y="220.8" fill="#000" font-family="Verdana" font-size="12">logo</text>
	<text x="625" y="237.8" fill="#000" font-family="Verdana" font-size="12">description</text>
	<text x="625" y="254.8" fill="#000" font-family="Verdana" font-size="12">is active</text>
</g>

<!-- Entity ROLE -->
<g class="page_0_00hwnTcU diagram_page" visibility="visible">
	<g>
		<rect x="10" y="304" width="86" height="25" fill="#b2abd2" stroke="#b2abd2" stroke-width="0" opacity="1"/>
		<rect x="10" y="329" width="86" height="43" fill="#d8daeb" stroke="#d8daeb" stroke-width="0" opacity="1"/>
		<rect x="10" y="304" width="86" height="68" fill="none" stroke="#8073ac" stroke-width="2" opacity="1"/>
		<line x1="10" y1="329" x2="96" y2="329" stroke="#8073ac" stroke-width="1"/>
	</g>
	<text x="37" y="321.75" fill="#000" font-family="Verdana" font-size="12">ROLE</text>
	<text x="15" y="346.8" fill="#000" font-family="Verdana" font-size="12">role number</text>
	<line x1="15" y1="349" x2="90" y2="349" stroke="#000" stroke-width="1"/>
	<text x="15" y="363.8" fill="#000" font-family="Verdana" font-size="12">title</text>
</g>

<!-- Entity REFERENCE -->
<g class="page_0_00hwnTcU diagram_page" visibility="visible">
	<g>
		<rect x="603" y="287" width="120" height="25" fill="#b2abd2" stroke="#b2abd2" stroke-width="0" opacity="1"/>
		<rect x="603" y="312" width="120" height="77" fill="#d8daeb" stroke="#d8daeb" stroke-width="0" opacity="1"/>
		<rect x="603" y="287" width="120" height="102" fill="none" stroke="#8073ac" stroke-width="2" opacity="1"/>
		<line x1="603" y1="312" x2="723" y2="312" stroke="#8073ac" stroke-width="1"/>
	</g>
	<text x="627" y="304.75" fill="#000" font-family="Verdana" font-size="12">REFERENCE</text>
	<text x="608" y="329.8" fill="#000" font-family="Verdana" font-size="12">reference number</text>
	<line x1="608" y1="332" x2="717" y2="332" stroke="#000" stroke-width="1"/>
	<text x="608" y="346.8" fill="#000" font-family="Verdana" font-size="12">name</text>
	<text x="608" y="363.8" fill="#000" font-family="Verdana" font-size="12">logo</text>
	<text x="608" y="380.8" fill="#000" font-family="Verdana" font-size="12">is active</text>
</g>
</svg>